<?xml version="1.0" encoding="UTF-8" standalone="no"?>
<svg
   xmlns:dc="http://purl.org/dc/elements/1.1/"
   xmlns:cc="http://creativecommons.org/ns#"
   xmlns:rdf="http://www.w3.org/1999/02/22-rdf-syntax-ns#"
   xmlns:svg="http://www.w3.org/2000/svg"
   xmlns="http://www.w3.org/2000/svg"
   xmlns:sodipodi="http://sodipodi.sourceforge.net/DTD/sodipodi-0.dtd"
   xmlns:inkscape="http://www.inkscape.org/namespaces/inkscape"
   inkscape:version="1.0 (4035a4fb49, 2020-05-01)"
   inkscape:export-ydpi="96"
   inkscape:export-xdpi="96"
   inkscape:export-filename="F:\modding\Forge\Web\images\square_logo6.png"
   height="200"
   width="256"
   sodipodi:docname="embed_logo.svg"
   xml:space="preserve"
   viewBox="0 0 256 200.00001"
   y="0px"
   x="0px"
   id="Ebene_1"
   version="1.1"><metadata
   id="metadata25"><rdf:RDF><cc:Work
       rdf:about=""><dc:format>image/svg+xml</dc:format><dc:type
         rdf:resource="http://purl.org/dc/dcmitype/StillImage" /><dc:title></dc:title></cc:Work></rdf:RDF></metadata><defs
   id="defs23">
	
	
</defs><sodipodi:namedview
   inkscape:current-layer="Ebene_1"
   inkscape:window-maximized="1"
   inkscape:window-y="-8"
   inkscape:window-x="-8"
   inkscape:cy="109.98561"
   inkscape:cx="103.44764"
   inkscape:zoom="1.8686709"
   inkscape:guide-bbox="true"
   showguides="true"
   fit-margin-bottom="0"
   fit-margin-right="0"
   fit-margin-left="0"
   fit-margin-top="0"
   showgrid="false"
   id="namedview21"
   inkscape:window-height="1371"
   inkscape:window-width="2560"
   inkscape:pageshadow="2"
   inkscape:pageopacity="1"
   guidetolerance="10"
   gridtolerance="10"
   objecttolerance="10"
   borderopacity="1"
   bordercolor="#666666"
   pagecolor="#2e4460" />
<style
   id="style2"
   type="text/css">
	.st0{fill:#DFA86A;}
	.st1{fill:#FAF4F3;}
</style>
<g
   transform="matrix(0.8,0,0,0.8,-41.473167,120.60122)"
   id="g14">
		<polygon
   class="st0"
   points="125,38.7 143,38.7 143,28.4 125,28.4 125,21.4 144.1,21.4 144.1,11.1 114.1,11.1 114.1,55.6 125,55.6 "
   id="polygon4" />
		<path
   class="st0"
   d="m 185.3,16.3 c -2.1,-2.1 -4.6,-3.6 -7.5,-4.7 -2.7,-1 -5.8,-1.5 -9,-1.5 h -0.4 c -3.4,0 -6.5,0.6 -9.3,1.7 -2.9,1.1 -5.4,2.7 -7.4,4.8 -2.1,2.1 -3.7,4.6 -4.9,7.5 -1.2,2.9 -1.7,6.1 -1.7,9.6 0,3.4 0.6,6.6 1.8,9.4 1.2,2.8 2.8,5.3 4.9,7.3 2.1,2 4.6,3.6 7.4,4.7 2.8,1.1 6,1.7 9.3,1.7 v 0 0 c 3.4,0 6.6,-0.6 9.4,-1.8 2.9,-1.1 5.4,-2.8 7.5,-4.8 2.1,-2 3.7,-4.5 4.9,-7.4 1.2,-2.8 1.8,-6 1.8,-9.4 0,-3.5 -0.6,-6.7 -1.7,-9.6 -1.4,-2.9 -3.1,-5.4 -5.1,-7.5 z m -4.7,16.8 c 0,2 -0.3,3.8 -0.9,5.4 -0.6,1.6 -1.4,3 -2.5,4.2 -1,1.1 -2.3,2.1 -3.8,2.7 -1.5,0.7 -3.2,1 -5,1 -1.8,0 -3.5,-0.3 -5,-1 -1.5,-0.7 -2.7,-1.6 -3.8,-2.7 -1.1,-1.2 -1.9,-2.6 -2.5,-4.2 -0.6,-1.6 -0.9,-3.5 -0.9,-5.4 0,-1.8 0.3,-3.5 0.9,-5 0.6,-1.5 1.4,-2.9 2.5,-4 1,-1.1 2.3,-2 3.8,-2.7 1.5,-0.6 3.1,-1 5,-1 1.8,0 3.5,0.3 5,1 1.5,0.6 2.8,1.5 3.8,2.7 1.1,1.1 1.9,2.5 2.5,4 0.6,1.5 0.9,3.2 0.9,5 z"
   id="path6" />
		<path
   class="st0"
   d="m 224.2,33.3 c 1.9,-2.3 2.9,-5.2 2.9,-8.6 0,-2.6 -0.5,-4.8 -1.5,-6.6 -1,-1.8 -2.4,-3.2 -4,-4.2 -1.6,-1 -3.4,-1.7 -5.5,-2.1 -1.9,-0.4 -4,-0.6 -6,-0.6 h -16 v 44.5 h 11 V 38.3 h 2.3 l 9.4,17.3 h 13.1 L 218.7,37 c 2.2,-0.8 4.1,-2 5.5,-3.7 z M 204.9,21 h 4.4 c 0.8,0 1.7,0.1 2.6,0.2 0.8,0.1 1.5,0.3 2.1,0.6 0.5,0.2 0.9,0.6 1.2,1 0.3,0.4 0.4,1 0.4,1.8 0,0.9 -0.2,1.6 -0.5,2.1 -0.3,0.5 -0.8,0.8 -1.3,1 -0.7,0.3 -1.5,0.5 -2.3,0.6 -1,0.1 -2,0.1 -2.9,0.1 h -3.8 V 21 Z"
   id="path8" />
		<path
   class="st0"
   d="m 242.7,24 c 1,-1.1 2.3,-2 3.8,-2.7 1.5,-0.6 3.1,-1 5,-1 1.8,0 3.6,0.3 5.3,0.9 1.6,0.6 3,1.4 4.1,2.5 l 1.3,1.3 8,-8.1 -1.5,-1.3 c -2.4,-2.1 -5.1,-3.6 -8.1,-4.4 -2.9,-0.8 -6,-1.2 -9.2,-1.2 -3.4,0 -6.5,0.6 -9.3,1.7 -2.9,1.1 -5.4,2.7 -7.4,4.8 -2.1,2.1 -3.7,4.6 -4.9,7.5 -1.2,2.9 -1.7,6.1 -1.7,9.6 0,3.4 0.6,6.6 1.8,9.4 1.2,2.8 2.8,5.3 4.9,7.3 2.1,2 4.6,3.6 7.4,4.7 2.8,1.1 6,1.7 9.3,1.7 6.5,0 12.5,-1.4 17.8,-4.3 l 1,-0.5 V 28 H 251 v 10.3 h 8.4 V 45 c -0.9,0.4 -1.8,0.7 -2.9,0.9 -1.5,0.3 -3.1,0.5 -4.8,0.5 -1.8,0 -3.5,-0.3 -5,-1 -1.5,-0.7 -2.7,-1.6 -3.8,-2.7 -1.1,-1.2 -1.9,-2.6 -2.5,-4.2 -0.6,-1.6 -0.9,-3.5 -0.9,-5.4 0,-1.8 0.3,-3.5 0.9,-5 0.5,-1.6 1.3,-3 2.3,-4.1 z"
   id="path10" />
		<polygon
   class="st0"
   points="304.3,38 304.3,27.7 285.6,27.7 285.6,21.4 305.4,21.4 305.4,11.1 274.6,11.1 274.6,55.6 306.4,55.6 306.4,45.3 285.6,45.3 285.6,38 "
   id="polygon12" />
	</g><path
   style="stroke-width:1.7365"
   class="st1"
   d="m 189.81919,43.683152 -65.63947,-3.29934 h 80.22604 v -6.42503 h -90.64501 v 13.544656 10.766266 c 0,0.17365 -2.60475,-15.802098 -3.29934,-20.316983 h -7.11964 v 11.808161 10.766265 c 0,0.17365 -3.12569,-18.927789 -3.29934,-21.358881 -18.05954,0 -48.448195,0 -48.448195,0 3.299336,2.778392 21.532529,18.40684 34.556239,24.83187 6.425032,3.125693 14.412906,3.299343 21.532536,3.472993 3.64664,0.17365 7.29327,0.3473 10.07167,3.12569 3.99393,3.82028 4.86219,9.89802 1.38919,14.4129 -3.29934,4.51488 -12.67641,5.55678 -12.67641,5.55678 l -7.987874,9.37707 v 11.113571 h 17.885884 l 0.52096,-10.93992 15.4548,-10.939911 c -1.56284,1.38919 -5.38313,4.86218 -10.76627,13.371001 -1.21554,1.91015 -2.25744,3.99394 -2.95204,6.07773 3.82029,-3.29933 11.80816,-5.55678 21.18524,-5.55678 9.20342,0 17.19129,2.25745 21.01158,5.55678 -0.6946,-2.08379 -1.7365,-4.16758 -2.95204,-6.07773 -5.55679,-8.508821 -9.20343,-11.981811 -10.76627,-13.371001 l 15.4548,10.939911 0.52095,10.93992 h 16.67034 V 99.945569 l -7.81422,-9.55072 c 0,0 -11.63451,-0.69459 -14.58655,-5.55678 -9.02977,-13.54466 3.29934,-34.729888 32.47244,-41.154917 z"
   id="path16" />
</svg>
